<svg width="130" height="130" viewBox="0 0 130 130" fill="none" xmlns="http://www.w3.org/2000/svg">
<rect width="130" height="130" rx="15" fill="#222932"/>
<path d="M92.9829 76.4489C92.9828 68.4793 92.9805 61.0791 92.9825 53.679C92.9851 44.3009 93.1653 44.0786 103.498 41C103.593 42.9069 103.76 44.7146 103.762 46.5226C103.783 63.0307 103.772 79.5387 103.779 96.0467C103.781 98.6394 103.311 101.206 106.826 102.516C108.031 102.965 109.288 105.833 108.942 107.199C108.511 108.894 106.589 110.372 105.017 111.557C104.244 112.139 102.807 111.941 101.671 111.942C77.2645 111.962 52.8584 111.964 28.4524 111.953C27.3138 111.952 25.8927 112.186 25.0963 111.621C23.4985 110.489 21.5345 109.075 21.0686 107.405C20.6962 106.07 21.9035 103.272 23.1341 102.719C26.4844 101.212 26.7384 98.7785 26.6076 95.8078C26.5075 93.5352 26.5888 91.2548 26.5898 88.9778C26.5941 79.8078 26.5942 79.8078 37.0501 76.2071C37.0501 82.2783 37.0466 88.0549 37.0525 93.8316C37.0541 95.3493 36.8438 96.9229 37.182 98.3662C37.4326 99.4353 38.4139 100.335 39.0696 101.31C39.856 100.275 41.2751 99.2669 41.3224 98.199C41.5658 92.7065 41.4646 87.1986 41.4691 81.6961C41.4773 71.6566 41.473 71.6566 52.229 68.1773C52.229 79.2402 52.229 90.0759 52.229 101.178C54.8403 101.178 56.6751 101.178 59.4604 101.178C59.4604 94.3911 59.4604 87.6364 59.4604 80.8818C59.4604 77.4663 59.4586 74.0509 59.4609 70.6354C59.4662 62.433 59.9403 61.8734 69.8053 59.2758C69.8053 65.2708 69.8044 71.0388 69.8056 76.8068C69.8069 83.6377 69.8889 90.4699 69.7799 97.299C69.7241 100.796 70.8156 102.375 75.1124 100.677C75.1124 88.4029 75.1117 75.9203 75.1126 63.4377C75.1133 53.8929 75.3338 53.6067 85.5952 50.482C85.5952 67.4179 85.5952 84.1582 85.5952 101.174C88.1371 101.174 89.975 101.174 92.9825 101.174C92.9825 93.1344 92.9825 85.0764 92.9829 76.4489Z" fill="white"/>
<path d="M44.8371 57.4342C38.2229 60.9118 32.0942 64.4363 25.6845 67.3451C23.7689 68.2145 19.8739 68.2942 18.9524 67.1214C16.3302 63.7844 19.6865 62.2542 22.2299 60.9114C45.1475 48.8121 68.0765 36.7344 90.9947 24.6364C92.3214 23.9361 93.5838 23.1149 95.3348 22.0785C93.1356 19.5922 91.1193 17.3128 89.1031 15.0334C89.2388 14.3556 89.3746 13.6778 89.5104 13C92.9036 13 96.2968 13.0001 99.6899 13C115.082 12.9996 115.095 13.0042 109.851 27.1562C108.929 29.6435 107.891 32.0904 106.818 34.5169C106.619 34.9675 105.993 35.2308 104.959 36.0743C103.412 33.6894 101.944 31.4276 99.9477 28.3499C81.7407 37.9619 63.4778 47.6036 44.8371 57.4342Z" fill="white"/>
</svg>
